<svg width="400" height="400" viewBox="0 0 400 400" fill="none" xmlns="http://www.w3.org/2000/svg">
<g clip-path="url(#clip0_104_1275)">
<path d="M270.773 65.6425C278.969 64.5464 287.23 63.9977 295.5 64C303.884 64 312.137 64.558 320.228 65.6425C325.839 66.394 330.038 70.6285 331.185 75.8485C330.327 75.6885 329.46 75.5848 328.589 75.538C321.535 75.1527 314.465 75.1527 307.412 75.538C296.531 76.132 288.75 85.2715 288.75 95.491V105.571C288.75 111.93 291.765 117.879 296.67 121.6L283.26 135.01C282.788 135.481 282.187 135.802 281.533 135.932C280.878 136.062 280.2 135.996 279.584 135.74C278.968 135.485 278.441 135.053 278.07 134.499C277.699 133.944 277.501 133.292 277.5 132.625V117.132C275.246 116.916 273 116.655 270.773 116.358C264.149 115.471 259.5 109.729 259.5 103.24V78.76C259.5 72.2755 264.149 66.529 270.773 65.6425Z" fill="black"/>
<path d="M318 82C314.571 82 311.16 82.09 307.781 82.279C300.707 82.666 295.5 88.624 295.5 95.491V105.571C295.5 112.407 300.662 118.347 307.695 118.779C308.658 118.837 309.621 118.887 310.584 118.932C311.484 118.972 312.316 119.337 312.915 119.94L323.49 130.515C323.962 130.986 324.564 131.307 325.218 131.437C325.873 131.567 326.552 131.5 327.168 131.244C327.785 130.988 328.312 130.555 328.682 130C329.053 129.445 329.25 128.792 329.25 128.125V118.81C335.788 117.933 340.5 112.227 340.5 105.693V95.491C340.5 88.624 335.293 82.666 328.219 82.279C324.816 82.0931 321.408 82.0001 318 82Z" fill="black"/>
<g opacity="0.7" clip-path="url(#clip1_104_1275)">
<rect y="200" width="200" height="200" transform="rotate(-90 0 200)" fill="#E1EBFB"/>
<path d="M-1.52588e-05 0C-1.52588e-05 26.2644 5.17313 52.2716 15.2241 76.5367C25.275 100.802 40.0069 122.85 58.5786 141.421C77.1503 159.993 99.1982 174.725 123.463 184.776C147.728 194.827 173.736 200 200 200L200 0H-1.52588e-05Z" fill="#F3F0EA"/>
<rect width="200" height="200" transform="matrix(0 -1 -1 0 400 200)" fill="#FFC6C6"/>
<path d="M200 200V0L400 200H200Z" fill="#FFC6C6"/>
<rect y="400" width="200" height="200" transform="rotate(-90 0 400)" fill="#F3F0EA"/>
<path d="M200 400V200L0 400H200Z" fill="#FFC6C6"/>
<rect x="200" y="400" width="200" height="200" transform="rotate(-90 200 400)" fill="#FFC6C6"/>
<path d="M200 400C200 373.736 205.173 347.728 215.224 323.463C225.275 299.198 240.007 277.15 258.579 258.579C277.15 240.007 299.198 225.275 323.463 215.224C347.728 205.173 373.736 200 400 200L400 400H200Z" fill="#C28686"/>
</g>
</g>
<defs>
<clipPath id="clip0_104_1275">
<path d="M0 50C0 22.3858 22.3858 0 50 0H370C386.569 0 400 13.4315 400 30V350C400 377.614 377.614 400 350 400H150C67.1573 400 0 332.843 0 250V50Z" fill="white"/>
</clipPath>
<clipPath id="clip1_104_1275">
<rect width="400" height="400" fill="white"/>
</clipPath>
</defs>
</svg>
