<svg width="400" height="400" viewBox="0 0 400 400" fill="none" xmlns="http://www.w3.org/2000/svg">
<g clip-path="url(#clip0_104_1252)">
<g clip-path="url(#clip1_104_1252)">
<path d="M272 64.7031V129.883C272 132.027 273.74 133.75 275.867 133.75C276.975 133.75 278.047 133.275 278.785 132.432L293.305 115.82L303.518 136.264C304.906 139.041 308.281 140.166 311.059 138.777C313.836 137.389 314.961 134.014 313.572 131.236L303.605 111.25H324.365C326.51 111.25 328.25 109.51 328.25 107.365C328.25 106.258 327.775 105.203 326.949 104.465L278.785 61.6621C278.029 60.9941 277.08 60.625 276.078 60.625C273.828 60.625 272 62.4531 272 64.7031Z" fill="black"/>
</g>
<g opacity="0.7" clip-path="url(#clip2_104_1252)">
<rect width="200" height="200" transform="matrix(1 0 0 -1 200 200)" fill="#F3F0EA"/>
<path d="M200 0L400 0L200 200L200 0Z" fill="#F3F0EA"/>
<rect width="200" height="200" transform="matrix(-1 0 0 1 400 200)" fill="#FFC6C6"/>
<path d="M300 300C300 355.228 255.228 400 200 400L200 200C255.228 200 300 244.772 300 300Z" fill="#C28686"/>
<path d="M300 300C300 355.228 344.772 400 400 400L400 200C344.772 200 300 244.772 300 300Z" fill="#E1EBFB"/>
<rect width="200" height="200" fill="#F3F0EA"/>
<path d="M0 0C26.2644 0 52.2716 5.17314 76.5367 15.2241C100.802 25.275 122.85 40.0069 141.421 58.5786C159.993 77.1504 174.725 99.1982 184.776 123.463C194.827 147.728 200 173.736 200 200L0 200V0Z" fill="#C28686"/>
<rect y="200" width="200" height="200" fill="#E1EBFB"/>
<rect y="200" width="100" height="200" fill="#F3F0EA"/>
<rect y="200" width="100" height="200" fill="#F3F0EA"/>
</g>
</g>
<defs>
<clipPath id="clip0_104_1252">
<path d="M250 0C332.843 0 400 67.1573 400 150V250C400 332.843 332.843 400 250 400H30C13.4315 400 0 386.569 0 370V30C0 13.4315 13.4315 0 30 0L250 0Z" fill="white"/>
</clipPath>
<clipPath id="clip1_104_1252">
<rect width="56.25" height="90" fill="white" transform="translate(272 55)"/>
</clipPath>
<clipPath id="clip2_104_1252">
<rect width="400" height="400" fill="white" transform="matrix(0 1 -1 0 400 0)"/>
</clipPath>
</defs>
</svg>
