<svg width="239" height="60" viewBox="0 0 239 60" fill="none" xmlns="http://www.w3.org/2000/svg">
<path d="M1.83289 22.6582C0.900551 26.9164 1.35101 31.4283 3.19475 35.4012C5.13277 39.5749 8.92501 42.8505 13.2515 44.2558C21.7264 47.0136 33.9831 42.0686 37.2201 33.4676C38.4039 30.3082 38.4982 26.9059 38.3515 23.5669C38.2049 20.2174 37.5868 15.4625 33.5012 14.9447C29.6357 14.4587 28.3262 19.3087 26.3044 21.6438C23.654 24.6975 18.8141 25.9866 15.1686 24.0952C11.8268 22.3518 9.71068 18.9071 6.327 17.1848C2.9119 15.4625 2.06336 19.7841 1.93765 22.1299C2.02158 21.1789 1.84337 22.4786 1.83289 22.6582ZM29.9499 18.7698C29.9499 18.7803 29.9499 18.7909 29.9499 18.8015C29.9394 18.8543 29.929 18.9071 29.929 18.96C29.8871 19.1185 29.8242 19.1924 29.9499 18.7698ZM29.3214 21.1789C29.3214 21.1895 29.3214 21.1895 29.3214 21.1789C29.2585 21.2529 29.2061 21.3585 29.1642 21.4642C29.1328 21.4642 29.1642 21.3585 29.3214 21.1789Z" fill="#C28686"/>
<path opacity="0.85" d="M2.4286 21.2474C1.49625 25.5057 1.94671 30.0175 3.79045 33.9904C5.72847 38.1642 9.52071 41.4397 13.8472 42.845C22.3221 45.6029 34.5788 40.6578 37.8158 32.0568C38.9996 28.8975 39.0939 25.4951 38.9472 22.1561C38.8006 18.8066 38.1825 14.0517 34.0969 13.534C30.2314 13.0479 28.9219 17.8979 26.9001 20.2331C24.2497 23.2867 19.4099 24.5758 15.7643 22.6844C12.4225 20.941 10.3064 17.4964 6.9227 15.7741C3.50759 14.0517 2.65906 18.3734 2.53335 20.7191C2.48098 20.8882 2.43907 21.0678 2.4286 21.2474ZM30.5456 17.359C30.5456 17.3696 30.5456 17.3801 30.5456 17.3907C30.5352 17.4435 30.5247 17.4964 30.5247 17.5492C30.4828 17.7077 30.4199 17.7817 30.5456 17.359ZM29.9171 19.7681C29.9171 19.7787 29.9171 19.7787 29.9171 19.7681C29.8542 19.8421 29.8018 19.9478 29.7599 20.0534C29.7285 20.0534 29.7599 19.9478 29.9171 19.7681Z" fill="#FFC6C6"/>
<path d="M64.5 14.5C66.8333 14.5 68.8333 14.8833 70.5 15.65C72.1667 16.3833 73.45 17.45 74.35 18.85C75.2833 20.25 75.75 21.9333 75.75 23.9C75.75 25.8667 75.2833 27.55 74.35 28.95C73.45 30.3167 72.1667 31.3833 70.5 32.15C68.8333 32.8833 66.8333 33.25 64.5 33.25H55.45V47.5H54.05V14.5H64.5ZM64.4 32C67.5333 32 69.9667 31.2833 71.7 29.85C73.4333 28.4167 74.3 26.4333 74.3 23.9C74.3 21.3333 73.4333 19.3333 71.7 17.9C69.9667 16.4667 67.5333 15.75 64.4 15.75H55.45V32H64.4ZM88.8285 48C86.5952 48 84.5952 47.4833 82.8285 46.45C81.0618 45.4167 79.6618 43.9333 78.6285 42C77.5952 40.0333 77.0785 37.7 77.0785 35C77.0785 32.2667 77.5785 29.9333 78.5785 28C79.6118 26.0667 80.9785 24.5833 82.6785 23.55C84.3785 22.5167 86.2952 22 88.4285 22C90.6618 22 92.5618 22.5 94.1285 23.5C95.7285 24.5 96.9452 25.9167 97.7785 27.75C98.6452 29.55 99.0785 31.7 99.0785 34.2C99.0785 34.3333 99.0785 34.4833 99.0785 34.65C99.0785 34.7833 99.0618 34.9 99.0285 35H77.9285V33.75H98.4285L97.7785 34.05C97.7452 30.8167 96.9119 28.2167 95.2785 26.25C93.6785 24.25 91.3952 23.25 88.4285 23.25C86.5285 23.25 84.8285 23.7167 83.3285 24.65C81.8285 25.5833 80.6452 26.9333 79.7785 28.7C78.9118 30.4333 78.4785 32.5333 78.4785 35C78.4785 37.4667 78.9118 39.5833 79.7785 41.35C80.6785 43.0833 81.8952 44.4167 83.4285 45.35C84.9952 46.2833 86.7785 46.75 88.7785 46.75C90.7785 46.75 92.5618 46.2833 94.1285 45.35C95.6952 44.4167 96.8785 43.1333 97.6785 41.5L98.8285 42.15C98.2619 43.35 97.4785 44.3833 96.4785 45.25C95.4785 46.1167 94.3285 46.8 93.0285 47.3C91.7285 47.7667 90.3285 48 88.8285 48ZM105.838 15.7V41.1C105.838 42.9333 106.238 44.3333 107.038 45.3C107.838 46.2667 109.071 46.75 110.738 46.75C111.638 46.75 112.454 46.6 113.188 46.3C113.921 45.9667 114.571 45.5 115.138 44.9L115.738 46.05C115.204 46.6167 114.488 47.0833 113.588 47.45C112.688 47.8167 111.704 48 110.638 48C109.338 48 108.204 47.75 107.238 47.25C106.304 46.75 105.604 46 105.138 45C104.671 43.9667 104.438 42.7 104.438 41.2V16.1L105.838 15.7ZM115.388 22.5V23.7H99.4375V22.5H115.388ZM127.723 22C129.389 22 130.889 22.2667 132.223 22.8C133.556 23.3333 134.673 24.1167 135.573 25.15C136.506 26.15 137.189 27.3667 137.623 28.8L136.373 29.45C135.839 27.45 134.823 25.9167 133.323 24.85C131.823 23.7833 129.939 23.25 127.673 23.25C125.706 23.25 123.956 23.7167 122.423 24.65C120.889 25.5833 119.673 26.9333 118.773 28.7C117.906 30.4333 117.473 32.5333 117.473 35C117.473 37.4333 117.906 39.5333 118.773 41.3C119.639 43.0667 120.823 44.4167 122.323 45.35C123.856 46.2833 125.606 46.75 127.573 46.75C129.073 46.75 130.456 46.4833 131.723 45.95C133.023 45.4167 134.089 44.6667 134.923 43.7C135.789 42.7 136.339 41.5333 136.573 40.2L137.873 40.65C137.539 42.15 136.873 43.45 135.873 44.55C134.906 45.65 133.706 46.5 132.273 47.1C130.873 47.7 129.306 48 127.573 48C125.339 48 123.356 47.4833 121.623 46.45C119.923 45.4167 118.573 43.9333 117.573 42C116.573 40.0333 116.073 37.7 116.073 35C116.073 32.3 116.573 29.9833 117.573 28.05C118.606 26.0833 119.989 24.5833 121.723 23.55C123.489 22.5167 125.489 22 127.723 22ZM157.685 30.8C157.685 28.4667 157.035 26.6333 155.735 25.3C154.435 23.9333 152.568 23.25 150.135 23.25C148.102 23.25 146.335 23.7 144.835 24.6C143.368 25.4667 142.268 26.9 141.535 28.9L140.435 28.15C141.168 26.1167 142.368 24.5833 144.035 23.55C145.735 22.5167 147.785 22 150.185 22C152.018 22 153.602 22.3333 154.935 23C156.268 23.6667 157.285 24.65 157.985 25.95C158.718 27.25 159.085 28.8167 159.085 30.65V43.4C159.085 45.6 160.002 46.7 161.835 46.7C162.535 46.7 163.118 46.5667 163.585 46.3L163.485 47.45C162.985 47.75 162.335 47.9 161.535 47.9C160.935 47.9 160.335 47.7667 159.735 47.5C159.135 47.2333 158.635 46.7667 158.235 46.1C157.835 45.4333 157.635 44.4667 157.635 43.2V41.25L158.135 41.05C157.868 42.6167 157.218 43.9167 156.185 44.95C155.152 45.9833 153.918 46.75 152.485 47.25C151.052 47.75 149.602 48 148.135 48C146.502 48 145.085 47.7667 143.885 47.3C142.685 46.8 141.752 46.0833 141.085 45.15C140.418 44.2167 140.085 43.0833 140.085 41.75C140.085 39.8833 140.702 38.4167 141.935 37.35C143.202 36.25 144.985 35.4833 147.285 35.05L157.935 32.95V34.15L148.085 36.1C145.885 36.5 144.235 37.1667 143.135 38.1C142.068 39 141.535 40.1833 141.535 41.65C141.535 43.2833 142.118 44.55 143.285 45.45C144.452 46.3167 146.135 46.75 148.335 46.75C149.335 46.75 150.368 46.6167 151.435 46.35C152.502 46.05 153.502 45.6 154.435 45C155.402 44.3667 156.185 43.5667 156.785 42.6C157.385 41.6 157.685 40.4167 157.685 39.05V30.8ZM167.918 15.7V41.1C167.918 42.9333 168.318 44.3333 169.118 45.3C169.918 46.2667 171.151 46.75 172.818 46.75C173.718 46.75 174.534 46.6 175.268 46.3C176.001 45.9667 176.651 45.5 177.218 44.9L177.818 46.05C177.284 46.6167 176.568 47.0833 175.668 47.45C174.768 47.8167 173.784 48 172.718 48C171.418 48 170.284 47.75 169.318 47.25C168.384 46.75 167.684 46 167.218 45C166.751 43.9667 166.518 42.7 166.518 41.2V16.1L167.918 15.7ZM177.468 22.5V23.7H161.518V22.5H177.468ZM180.553 17.6C180.119 17.6 179.769 17.4667 179.503 17.2C179.236 16.9333 179.103 16.5833 179.103 16.15C179.103 15.7167 179.236 15.3667 179.503 15.1C179.769 14.8333 180.136 14.7 180.603 14.7C181.036 14.7 181.386 14.8333 181.653 15.1C181.919 15.3667 182.053 15.7167 182.053 16.15C182.053 16.5833 181.919 16.9333 181.653 17.2C181.386 17.4667 181.019 17.6 180.553 17.6ZM181.303 22.5V47.5H179.903V22.5H181.303ZM197.461 22C199.795 22 201.845 22.5167 203.611 23.55C205.378 24.5833 206.761 26.0833 207.761 28.05C208.761 29.9833 209.261 32.3 209.261 35C209.261 37.7 208.761 40.0333 207.761 42C206.761 43.9333 205.378 45.4167 203.611 46.45C201.845 47.4833 199.795 48 197.461 48C195.195 48 193.178 47.4833 191.411 46.45C189.645 45.4167 188.245 43.9333 187.211 42C186.211 40.0333 185.711 37.7 185.711 35C185.711 32.3 186.211 29.9833 187.211 28.05C188.245 26.0833 189.645 24.5833 191.411 23.55C193.178 22.5167 195.195 22 197.461 22ZM197.511 23.2C195.445 23.2 193.628 23.6833 192.061 24.65C190.528 25.5833 189.311 26.9333 188.411 28.7C187.545 30.4333 187.111 32.5333 187.111 35C187.111 37.4333 187.545 39.5333 188.411 41.3C189.311 43.0667 190.528 44.4333 192.061 45.4C193.628 46.3333 195.445 46.8 197.511 46.8C199.545 46.8 201.328 46.3333 202.861 45.4C204.428 44.4333 205.645 43.0667 206.511 41.3C207.378 39.5333 207.811 37.4333 207.811 35C207.811 32.5333 207.378 30.4333 206.511 28.7C205.645 26.9333 204.428 25.5833 202.861 24.65C201.328 23.6833 199.545 23.2 197.511 23.2ZM213.721 47.5V22.5H215.021L215.071 29.25L214.921 29C215.321 27.6333 215.988 26.4167 216.921 25.35C217.888 24.2833 219.054 23.4667 220.421 22.9C221.821 22.3 223.371 22 225.071 22C226.971 22 228.621 22.3667 230.021 23.1C231.421 23.8 232.504 24.8167 233.271 26.15C234.071 27.4833 234.471 29.15 234.471 31.15V47.5H233.071V31.5C233.071 28.8 232.321 26.75 230.821 25.35C229.354 23.95 227.371 23.25 224.871 23.25C223.071 23.25 221.421 23.6667 219.921 24.5C218.454 25.3333 217.288 26.4667 216.421 27.9C215.554 29.3333 215.121 30.9667 215.121 32.8V47.5H213.721Z" fill="black"/>
</svg>
