<svg width="22" height="22" viewBox="0 0 22 22" fill="none" xmlns="http://www.w3.org/2000/svg">
<rect width="22" height="22" rx="5" fill="white"/>
<path d="M19.0001 9.6737C19.0001 10.4802 18.6782 12.1999 18.0667 13.3035C17.4552 14.407 16.5758 15.3235 15.5166 15.9606C14.4575 16.5978 13.2561 16.9332 12.0332 16.9332C10.8102 16.9332 9.60884 16.5978 8.54973 15.9606C7.49063 15.3235 6.61114 14.407 5.99967 13.3035C5.38819 12.1999 5.06689 12.402 5.06689 11.1277C5.06689 9.85339 5.38819 7.14752 5.99967 6.04394C6.61114 4.94035 8.16268 1.93952 8.54973 3.38677C8.77039 4.21184 9.87162 6.13949 10.7777 7.6444C12.0332 7.6444 12.0332 9.6737 12.0332 9.6737C12.0332 9.6737 19.0001 8.86724 19.0001 9.6737Z" fill="#0F172A"/>
<path d="M5.20356 8.35822C4.28376 8.99638 3.8484 9.90553 3.57212 10.9059C3.29584 11.9063 3.2969 13.442 3.62488 14.4448C3.95285 15.4476 4.59301 15.8725 5.41469 16.5398C6.23637 17.207 7.2292 17.6202 8.26764 17.727C9.30607 17.8338 10.3435 17.6295 11.2486 17.1398C12.1538 16.6502 12.8861 15.8972 13.3529 14.9761C13.8197 14.055 14.0001 13.0072 13.8712 11.9652C13.7423 10.9232 12.6354 9.56751 12.2767 10.1202C11.918 10.6729 10.1326 12.6153 8.64753 12.4626C7.16249 12.3098 6.12336 7.72006 5.20356 8.35822Z" fill="#A1A1AA"/>
</svg>
