<svg width="261" height="62" viewBox="0 0 261 62" fill="none" xmlns="http://www.w3.org/2000/svg">
<path d="M59.1011 20.9657C57 22.5799 61.399 29.7728 57 34.7728C48.399 39.8906 44.5232 38.774 40.6388 41.1977C36.7545 43.6213 38.0347 48.5799 33.5494 48.5799C29.0642 48.5799 24.6579 47.304 20.7736 44.8803C16.8892 42.4567 13.6636 38.9707 11.421 34.7728C9.1784 30.5749 11.6016 28.9272 11.6016 24.0799C11.6016 19.2326 9.17833 14.2778 11.421 10.0799C13.6636 5.882 15.5807 -2.92518 17.0002 2.57996C17.8095 5.71841 21.9324 7.93958 25.2554 13.6641C38.589 12.6003 36.8039 18.6132 37.0505 18.4511C37.0505 18.4511 61.2021 19.3515 59.1011 20.9657Z" fill="#FDA4AF"/>
<path d="M14.6653 19.5493C11.3763 21.8313 9.81953 25.0822 8.8316 28.6593C7.84367 32.2364 7.84746 37.7278 9.02023 41.3137C10.193 44.8996 12.4821 46.419 15.4203 48.805C18.3585 51.191 21.9086 52.6684 25.6219 53.0504C29.3351 53.4323 33.0447 52.7016 36.2814 50.9507C39.5181 49.1998 42.1366 46.5073 43.8058 43.2137C45.4751 39.9201 46.12 36.1733 45.6591 32.4472C45.1982 28.7211 41.2403 23.8735 39.9576 25.8499C38.6748 27.8263 32.2906 34.7719 26.9803 34.2258C21.6701 33.6796 17.9543 17.2673 14.6653 19.5493Z" fill="#FECDD3"/>
<path d="M27.75 43.0914C27.5 43.822 26.5 44.3414 26.5 44.3414C26.5 44.3414 25.25 43.7818 25.25 43.0914C25.25 42.4011 25.8096 41.8414 26.5 41.8414C27.1904 41.8414 28 42.3609 27.75 43.0914Z" fill="#FDA4AF"/>
<path d="M61 23.322C61 24.7027 59.8807 25.822 58.5 25.822C57.1193 25.822 56 24.322 56 23.322C56 22.322 57.1193 20.322 58.5 20.322C59.8807 20.322 61 21.9413 61 23.322Z" fill="#FECDD3"/>
<path d="M86.5 15.5C88.8333 15.5 90.8333 15.8833 92.5 16.65C94.1667 17.3833 95.45 18.45 96.35 19.85C97.2833 21.25 97.75 22.9333 97.75 24.9C97.75 26.8667 97.2833 28.55 96.35 29.95C95.45 31.3167 94.1667 32.3833 92.5 33.15C90.8333 33.8833 88.8333 34.25 86.5 34.25H77.45V48.5H76.05V15.5H86.5ZM86.4 33C89.5333 33 91.9667 32.2833 93.7 30.85C95.4333 29.4167 96.3 27.4333 96.3 24.9C96.3 22.3333 95.4333 20.3333 93.7 18.9C91.9667 17.4667 89.5333 16.75 86.4 16.75H77.45V33H86.4ZM110.829 49C108.595 49 106.595 48.4833 104.829 47.45C103.062 46.4167 101.662 44.9333 100.629 43C99.5952 41.0333 99.0785 38.7 99.0785 36C99.0785 33.2667 99.5785 30.9333 100.579 29C101.612 27.0667 102.979 25.5833 104.679 24.55C106.379 23.5167 108.295 23 110.429 23C112.662 23 114.562 23.5 116.129 24.5C117.729 25.5 118.945 26.9167 119.779 28.75C120.645 30.55 121.079 32.7 121.079 35.2C121.079 35.3333 121.079 35.4833 121.079 35.65C121.079 35.7833 121.062 35.9 121.029 36H99.9285V34.75H120.429L119.779 35.05C119.745 31.8167 118.912 29.2167 117.279 27.25C115.679 25.25 113.395 24.25 110.429 24.25C108.529 24.25 106.829 24.7167 105.329 25.65C103.829 26.5833 102.645 27.9333 101.779 29.7C100.912 31.4333 100.479 33.5333 100.479 36C100.479 38.4667 100.912 40.5833 101.779 42.35C102.679 44.0833 103.895 45.4167 105.429 46.35C106.995 47.2833 108.779 47.75 110.779 47.75C112.779 47.75 114.562 47.2833 116.129 46.35C117.695 45.4167 118.879 44.1333 119.679 42.5L120.829 43.15C120.262 44.35 119.479 45.3833 118.479 46.25C117.479 47.1167 116.329 47.8 115.029 48.3C113.729 48.7667 112.329 49 110.829 49ZM127.838 16.7V42.1C127.838 43.9333 128.238 45.3333 129.038 46.3C129.838 47.2667 131.071 47.75 132.738 47.75C133.638 47.75 134.454 47.6 135.188 47.3C135.921 46.9667 136.571 46.5 137.138 45.9L137.738 47.05C137.204 47.6167 136.488 48.0833 135.588 48.45C134.688 48.8167 133.704 49 132.638 49C131.338 49 130.204 48.75 129.238 48.25C128.304 47.75 127.604 47 127.138 46C126.671 44.9667 126.438 43.7 126.438 42.2V17.1L127.838 16.7ZM137.388 23.5V24.7H121.438V23.5H137.388ZM149.723 23C151.389 23 152.889 23.2667 154.223 23.8C155.556 24.3333 156.673 25.1167 157.573 26.15C158.506 27.15 159.189 28.3667 159.623 29.8L158.373 30.45C157.839 28.45 156.823 26.9167 155.323 25.85C153.823 24.7833 151.939 24.25 149.673 24.25C147.706 24.25 145.956 24.7167 144.423 25.65C142.889 26.5833 141.673 27.9333 140.773 29.7C139.906 31.4333 139.473 33.5333 139.473 36C139.473 38.4333 139.906 40.5333 140.773 42.3C141.639 44.0667 142.823 45.4167 144.323 46.35C145.856 47.2833 147.606 47.75 149.573 47.75C151.073 47.75 152.456 47.4833 153.723 46.95C155.023 46.4167 156.089 45.6667 156.923 44.7C157.789 43.7 158.339 42.5333 158.573 41.2L159.873 41.65C159.539 43.15 158.873 44.45 157.873 45.55C156.906 46.65 155.706 47.5 154.273 48.1C152.873 48.7 151.306 49 149.573 49C147.339 49 145.356 48.4833 143.623 47.45C141.923 46.4167 140.573 44.9333 139.573 43C138.573 41.0333 138.073 38.7 138.073 36C138.073 33.3 138.573 30.9833 139.573 29.05C140.606 27.0833 141.989 25.5833 143.723 24.55C145.489 23.5167 147.489 23 149.723 23ZM179.685 31.8C179.685 29.4667 179.035 27.6333 177.735 26.3C176.435 24.9333 174.568 24.25 172.135 24.25C170.102 24.25 168.335 24.7 166.835 25.6C165.368 26.4667 164.268 27.9 163.535 29.9L162.435 29.15C163.168 27.1167 164.368 25.5833 166.035 24.55C167.735 23.5167 169.785 23 172.185 23C174.018 23 175.602 23.3333 176.935 24C178.268 24.6667 179.285 25.65 179.985 26.95C180.718 28.25 181.085 29.8167 181.085 31.65V44.4C181.085 46.6 182.002 47.7 183.835 47.7C184.535 47.7 185.118 47.5667 185.585 47.3L185.485 48.45C184.985 48.75 184.335 48.9 183.535 48.9C182.935 48.9 182.335 48.7667 181.735 48.5C181.135 48.2333 180.635 47.7667 180.235 47.1C179.835 46.4333 179.635 45.4667 179.635 44.2V42.25L180.135 42.05C179.868 43.6167 179.218 44.9167 178.185 45.95C177.152 46.9833 175.918 47.75 174.485 48.25C173.052 48.75 171.602 49 170.135 49C168.502 49 167.085 48.7667 165.885 48.3C164.685 47.8 163.752 47.0833 163.085 46.15C162.418 45.2167 162.085 44.0833 162.085 42.75C162.085 40.8833 162.702 39.4167 163.935 38.35C165.202 37.25 166.985 36.4833 169.285 36.05L179.935 33.95V35.15L170.085 37.1C167.885 37.5 166.235 38.1667 165.135 39.1C164.068 40 163.535 41.1833 163.535 42.65C163.535 44.2833 164.118 45.55 165.285 46.45C166.452 47.3167 168.135 47.75 170.335 47.75C171.335 47.75 172.368 47.6167 173.435 47.35C174.502 47.05 175.502 46.6 176.435 46C177.402 45.3667 178.185 44.5667 178.785 43.6C179.385 42.6 179.685 41.4167 179.685 40.05V31.8ZM189.918 16.7V42.1C189.918 43.9333 190.318 45.3333 191.118 46.3C191.918 47.2667 193.151 47.75 194.818 47.75C195.718 47.75 196.534 47.6 197.268 47.3C198.001 46.9667 198.651 46.5 199.218 45.9L199.818 47.05C199.284 47.6167 198.568 48.0833 197.668 48.45C196.768 48.8167 195.784 49 194.718 49C193.418 49 192.284 48.75 191.318 48.25C190.384 47.75 189.684 47 189.218 46C188.751 44.9667 188.518 43.7 188.518 42.2V17.1L189.918 16.7ZM199.468 23.5V24.7H183.518V23.5H199.468ZM202.553 18.6C202.119 18.6 201.769 18.4667 201.503 18.2C201.236 17.9333 201.103 17.5833 201.103 17.15C201.103 16.7167 201.236 16.3667 201.503 16.1C201.769 15.8333 202.136 15.7 202.603 15.7C203.036 15.7 203.386 15.8333 203.653 16.1C203.919 16.3667 204.053 16.7167 204.053 17.15C204.053 17.5833 203.919 17.9333 203.653 18.2C203.386 18.4667 203.019 18.6 202.553 18.6ZM203.303 23.5V48.5H201.903V23.5H203.303ZM219.461 23C221.795 23 223.845 23.5167 225.611 24.55C227.378 25.5833 228.761 27.0833 229.761 29.05C230.761 30.9833 231.261 33.3 231.261 36C231.261 38.7 230.761 41.0333 229.761 43C228.761 44.9333 227.378 46.4167 225.611 47.45C223.845 48.4833 221.795 49 219.461 49C217.195 49 215.178 48.4833 213.411 47.45C211.645 46.4167 210.245 44.9333 209.211 43C208.211 41.0333 207.711 38.7 207.711 36C207.711 33.3 208.211 30.9833 209.211 29.05C210.245 27.0833 211.645 25.5833 213.411 24.55C215.178 23.5167 217.195 23 219.461 23ZM219.511 24.2C217.445 24.2 215.628 24.6833 214.061 25.65C212.528 26.5833 211.311 27.9333 210.411 29.7C209.545 31.4333 209.111 33.5333 209.111 36C209.111 38.4333 209.545 40.5333 210.411 42.3C211.311 44.0667 212.528 45.4333 214.061 46.4C215.628 47.3333 217.445 47.8 219.511 47.8C221.545 47.8 223.328 47.3333 224.861 46.4C226.428 45.4333 227.645 44.0667 228.511 42.3C229.378 40.5333 229.811 38.4333 229.811 36C229.811 33.5333 229.378 31.4333 228.511 29.7C227.645 27.9333 226.428 26.5833 224.861 25.65C223.328 24.6833 221.545 24.2 219.511 24.2ZM235.721 48.5V23.5H237.021L237.071 30.25L236.921 30C237.321 28.6333 237.988 27.4167 238.921 26.35C239.888 25.2833 241.054 24.4667 242.421 23.9C243.821 23.3 245.371 23 247.071 23C248.971 23 250.621 23.3667 252.021 24.1C253.421 24.8 254.504 25.8167 255.271 27.15C256.071 28.4833 256.471 30.15 256.471 32.15V48.5H255.071V32.5C255.071 29.8 254.321 27.75 252.821 26.35C251.354 24.95 249.371 24.25 246.871 24.25C245.071 24.25 243.421 24.6667 241.921 25.5C240.454 26.3333 239.288 27.4667 238.421 28.9C237.554 30.3333 237.121 31.9667 237.121 33.8V48.5H235.721Z" fill="black"/>
</svg>
