<svg width="244" height="53" viewBox="0 0 244 53" fill="none" xmlns="http://www.w3.org/2000/svg">
<path d="M50.9869 20.1436C48.8858 21.7578 53.2848 28.9507 48.8858 33.9507C40.2848 39.0685 36.409 37.9519 32.5247 40.3756C28.6403 42.7992 29.9205 47.7578 25.4352 47.7578C20.95 47.7578 16.5437 46.4819 12.6594 44.0582C8.77505 41.6346 5.54947 38.1486 3.30684 33.9507C1.06421 29.7528 3.48738 28.1051 3.48738 23.2578C3.48739 18.4105 1.06414 13.4557 3.30677 9.25778C5.5494 5.0599 7.46653 -3.74728 8.88606 1.75785C9.69533 4.89631 13.8182 7.11747 17.1413 12.842C30.4748 11.7782 28.6897 17.7911 28.9364 17.6289C28.9364 17.6289 53.0879 18.5294 50.9869 20.1436Z" fill="#FDA4AF"/>
<path d="M6.55127 18.7272C3.26223 21.0091 1.70548 24.2601 0.717554 27.8372C-0.270375 31.4143 -0.266584 36.9057 0.906191 40.4916C2.07897 44.0775 4.36805 45.5968 7.30623 47.9828C10.2444 50.3689 13.7946 51.8463 17.5078 52.2282C21.2211 52.6101 24.9306 51.8794 28.1673 50.1285C31.404 48.3776 34.0226 45.6851 35.6918 42.3915C37.361 39.0979 38.006 35.3512 37.545 31.6251C37.0841 27.8989 33.1262 23.0514 31.8435 25.0278C30.5608 27.0041 24.1765 33.9498 18.8663 33.4036C13.5561 32.8574 9.8403 16.4452 6.55127 18.7272Z" fill="#FECDD3"/>
<path d="M19.6358 42.2693C19.3858 42.9998 18.3858 43.5193 18.3858 43.5193C18.3858 43.5193 17.1358 42.9597 17.1358 42.2693C17.1358 41.579 17.6955 41.0193 18.3858 41.0193C19.0762 41.0193 19.8858 41.5388 19.6358 42.2693Z" fill="#FDA4AF"/>
<path d="M52.8858 22.4999C52.8858 23.8806 51.7665 24.9999 50.3858 24.9999C49.0051 24.9999 47.8858 23.4999 47.8858 22.4999C47.8858 21.4999 49.0051 19.4999 50.3858 19.4999C51.7665 19.4999 52.8858 21.1192 52.8858 22.4999Z" fill="#FECDD3"/>
<path d="M21 41.3L27.798 39.4785M21 42H27.8837M21 42.6999L27.798 44.5215" stroke="#FDA4AF" stroke-width="0.3" stroke-linecap="round"/>
<path d="M16.3383 40.9892L9.95988 38.0149M16.2168 41.6785L9.43764 40.4832M16.0952 42.3678L9.08418 42.9812" stroke="#FDA4AF" stroke-width="0.3" stroke-linecap="round"/>
<path d="M78.902 9C81.1407 9 83.088 9.38333 84.744 10.15C86.4 10.9167 87.6727 12.0207 88.562 13.462C89.482 14.8727 89.942 16.5287 89.942 18.43C89.942 20.3007 89.482 21.926 88.562 23.306C87.6727 24.686 86.4 25.7593 84.744 26.526C83.088 27.262 81.1407 27.63 78.902 27.63H69.472V41.66H68V9H78.902ZM78.902 26.25C81.938 26.25 84.2687 25.5753 85.894 24.226C87.55 22.8767 88.378 20.9447 88.378 18.43C88.378 15.854 87.55 13.876 85.894 12.496C84.2687 11.0853 81.938 10.38 78.902 10.38H69.472V26.25H78.902Z" fill="black"/>
<path d="M92.0411 29.47C92.0411 27.1087 92.4244 24.962 93.1911 23.03C93.9884 21.098 95.1691 19.5647 96.7331 18.43C98.2971 17.2953 100.183 16.728 102.391 16.728C104.599 16.728 106.485 17.2953 108.049 18.43C109.613 19.5647 110.778 21.098 111.545 23.03C112.342 24.962 112.741 27.1087 112.741 29.47V29.792H93.5131C93.5438 33.196 94.3564 35.8947 95.9511 37.888C97.5764 39.8507 99.7231 40.832 102.391 40.832C104.231 40.832 105.872 40.3107 107.313 39.268C108.785 38.2253 109.858 36.7993 110.533 34.99L112.051 35.082C111.346 37.2593 110.119 38.992 108.371 40.28C106.623 41.568 104.63 42.212 102.391 42.212C100.183 42.212 98.2971 41.6447 96.7331 40.51C95.1691 39.3753 93.9884 37.842 93.1911 35.91C92.4244 33.978 92.0411 31.8313 92.0411 29.47ZM111.223 28.412C111.07 25.2227 110.196 22.708 108.601 20.868C107.037 19.028 104.967 18.108 102.391 18.108C99.8151 18.108 97.7298 19.028 96.1351 20.868C94.5711 22.708 93.7124 25.2227 93.5591 28.412H111.223Z" fill="black"/>
<path d="M121.04 11.76V36.738C121.04 37.9033 121.331 38.808 121.914 39.452C122.497 40.096 123.325 40.418 124.398 40.418H126.974V41.66H124.398C122.957 41.66 121.807 41.2153 120.948 40.326C120.089 39.4367 119.66 38.2407 119.66 36.738V11.76H121.04ZM126.974 17.28V18.66H115.382V17.28H126.974Z" fill="black"/>
<path d="M147.712 24.962C147.099 22.8153 146.071 21.144 144.63 19.948C143.189 18.7213 141.456 18.108 139.432 18.108C136.703 18.108 134.541 19.1353 132.946 21.19C131.351 23.214 130.554 25.974 130.554 29.47C130.554 32.966 131.351 35.7413 132.946 37.796C134.541 39.82 136.703 40.832 139.432 40.832C141.517 40.832 143.296 40.1727 144.768 38.854C146.271 37.5353 147.298 35.7413 147.85 33.472L149.368 33.61C149 35.3273 148.371 36.83 147.482 38.118C146.623 39.406 145.519 40.418 144.17 41.154C142.821 41.8593 141.241 42.212 139.432 42.212C137.224 42.212 135.338 41.6447 133.774 40.51C132.21 39.3753 131.029 37.842 130.232 35.91C129.465 33.978 129.082 31.8313 129.082 29.47C129.082 27.1087 129.465 24.962 130.232 23.03C131.029 21.098 132.21 19.5647 133.774 18.43C135.338 17.2953 137.224 16.728 139.432 16.728C141.18 16.728 142.713 17.0653 144.032 17.74C145.351 18.4147 146.439 19.3653 147.298 20.592C148.187 21.788 148.831 23.214 149.23 24.87L147.712 24.962Z" fill="black"/>
<path d="M152.778 24.502C153.177 22.018 154.173 20.1013 155.768 18.752C157.363 17.4027 159.417 16.728 161.932 16.728C164.937 16.728 167.191 17.5867 168.694 19.304C170.197 20.9907 170.948 23.536 170.948 26.94V37.52C170.948 38.5013 171.101 39.2067 171.408 39.636C171.745 40.0653 172.267 40.28 172.972 40.28H173.8V41.66H172.788C172.052 41.6293 171.439 41.4453 170.948 41.108C170.457 40.7707 170.089 40.2187 169.844 39.452C169.599 38.6853 169.507 37.658 169.568 36.37C168.74 38.21 167.513 39.636 165.888 40.648C164.263 41.6293 162.407 42.1507 160.322 42.212C157.899 42.1813 155.967 41.568 154.526 40.372C153.085 39.1453 152.364 37.566 152.364 35.634C152.364 34.254 152.747 33.104 153.514 32.184C154.281 31.264 155.277 30.5433 156.504 30.022C157.731 29.5007 159.141 29.0867 160.736 28.78L169.476 27.17C169.476 24.0113 168.878 21.7113 167.682 20.27C166.486 18.8287 164.569 18.108 161.932 18.108C159.816 18.108 158.099 18.6753 156.78 19.81C155.461 20.9447 154.633 22.5547 154.296 24.64L152.778 24.502ZM153.836 35.634C153.836 37.29 154.465 38.6087 155.722 39.59C157.01 40.5407 158.712 40.9547 160.828 40.832C162.545 40.7707 164.079 40.326 165.428 39.498C166.777 38.67 167.82 37.566 168.556 36.186C169.292 34.806 169.645 33.2727 169.614 31.586L169.568 28.458L162.208 29.838L161.15 30.022C159.709 30.298 158.467 30.6507 157.424 31.08C156.381 31.4787 155.523 32.046 154.848 32.782C154.173 33.518 153.836 34.4687 153.836 35.634Z" fill="black"/>
<path d="M180.51 11.76V36.738C180.51 37.9033 180.801 38.808 181.384 39.452C181.966 40.096 182.794 40.418 183.868 40.418H186.444V41.66H183.868C182.426 41.66 181.276 41.2153 180.418 40.326C179.559 39.4367 179.13 38.2407 179.13 36.738V11.76H180.51ZM186.444 17.28V18.66H174.852V17.28H186.444Z" fill="black"/>
<path d="M192.353 17.28V41.66H190.973V17.28H192.353ZM192.445 10.104V13.324H190.881V10.104H192.445Z" fill="black"/>
<path d="M207.674 42.212C205.466 42.212 203.58 41.6447 202.016 40.51C200.452 39.3753 199.271 37.842 198.474 35.91C197.707 33.978 197.324 31.8313 197.324 29.47C197.324 27.1087 197.707 24.962 198.474 23.03C199.271 21.098 200.452 19.5647 202.016 18.43C203.58 17.2953 205.466 16.728 207.674 16.728C209.882 16.728 211.768 17.2953 213.332 18.43C214.896 19.5647 216.061 21.098 216.828 23.03C217.625 24.962 218.024 27.1087 218.024 29.47C218.024 31.8313 217.625 33.978 216.828 35.91C216.061 37.842 214.896 39.3753 213.332 40.51C211.768 41.6447 209.882 42.212 207.674 42.212ZM207.674 40.832C210.403 40.832 212.565 39.82 214.16 37.796C215.754 35.7413 216.552 32.966 216.552 29.47C216.552 25.974 215.754 23.214 214.16 21.19C212.565 19.1353 210.403 18.108 207.674 18.108C204.944 18.108 202.782 19.1353 201.188 21.19C199.593 23.214 198.796 25.974 198.796 29.47C198.796 32.966 199.593 35.7413 201.188 37.796C202.782 39.82 204.944 40.832 207.674 40.832Z" fill="black"/>
<path d="M224.271 17.28L224.409 23.95H224.179C224.332 21.558 225.206 19.764 226.801 18.568C228.395 17.3413 230.373 16.728 232.735 16.728C235.28 16.728 237.243 17.602 238.623 19.35C240.033 21.0673 240.739 23.2753 240.739 25.974V41.66H239.359V27.078C239.359 25.238 239.113 23.6587 238.623 22.34C238.163 20.9907 237.411 19.948 236.369 19.212C235.326 18.476 233.992 18.108 232.367 18.108C229.852 18.108 227.889 18.936 226.479 20.592C225.068 22.248 224.363 24.41 224.363 27.078V41.66H222.983V17.28H224.271Z" fill="black"/>
</svg>
