<svg width="63" height="63" viewBox="0 0 63 63" fill="none" xmlns="http://www.w3.org/2000/svg">
<g clip-path="url(#clip0_124_278)">
<path d="M0 14C0 6.26801 6.26801 0 14 0V0C41.062 0 63 21.938 63 49V55.125C63 59.4742 59.4742 63 55.125 63H5C2.23858 63 0 60.7614 0 58V14Z" fill="#FAFAFA"/>
<path d="M49.1011 39.3858C47 41 51.3989 48.1929 47 53.1929C38.3989 58.3107 34.5232 57.1941 30.6388 59.6178C26.7545 62.0414 28.0347 67 23.5494 67C19.0641 67 14.6579 65.7241 10.7736 63.3004C6.88922 60.8768 3.66364 57.3908 1.42101 53.1929C-0.821616 48.995 -2 49.764 -2 44.9167C-2 40.0694 -0.821615 29.7766 1.42101 25.5787C3.66364 21.3808 9.35404 9.9661 10.7736 15.4712C11.5828 18.6097 11.9324 26.3597 15.2554 32.0842C28.589 31.0204 26.8039 37.0333 27.0505 36.8711C27.0505 36.8711 51.2021 37.7716 49.1011 39.3858Z" fill="#0F172A"/>
<path d="M4.66531 37.9693C1.37628 40.2513 -0.180474 43.5023 -1.1684 47.0794C-2.15633 50.6565 -2.15254 56.1479 -0.979766 59.7338C0.193009 63.3197 2.48209 64.839 5.42027 67.225C8.35846 69.6111 11.9086 71.0885 15.6219 71.4704C19.3351 71.8523 23.0447 71.1216 26.2814 69.3707C29.5181 67.6198 32.1366 64.9273 33.8058 61.6337C35.4751 58.3401 36.12 54.5934 35.6591 50.8673C35.1982 47.1411 31.2403 42.2936 29.9576 44.2699C28.6748 46.2463 22.2906 53.192 16.9803 52.6458C11.6701 52.0996 7.95434 35.6874 4.66531 37.9693Z" fill="#A1A1AA"/>
</g>
<defs>
<clipPath id="clip0_124_278">
<path d="M0 14C0 6.26801 6.26801 0 14 0V0C41.062 0 63 21.938 63 49V55.125C63 59.4742 59.4742 63 55.125 63H5C2.23858 63 0 60.7614 0 58V14Z" fill="white"/>
</clipPath>
</defs>
</svg>
