<svg width="22" height="22" viewBox="0 0 22 22" fill="none" xmlns="http://www.w3.org/2000/svg">
<rect width="22" height="22" rx="5" fill="white"/>
<path d="M19.0001 9.6737C19.0001 10.4802 18.6782 12.1999 18.0667 13.3035C17.4552 14.407 16.5758 15.3235 15.5166 15.9606C14.4575 16.5978 13.2561 16.9332 12.0332 16.9332C10.8102 16.9332 9.60884 16.5978 8.54973 15.9606C7.49063 15.3235 6.61114 14.407 5.99967 13.3035C5.38819 12.1999 5.06689 12.402 5.06689 11.1277C5.06689 9.85339 5.38819 7.14752 5.99967 6.04394C6.61114 4.94035 8.16268 1.93952 8.54973 3.38677C8.77039 4.21184 9.87162 6.13949 10.7777 7.6444C12.0332 7.6444 12.0332 9.6737 12.0332 9.6737C12.0332 9.6737 19.0001 8.86724 19.0001 9.6737Z" fill="#FECDD3"/>
<path d="M4.68565 8.795C3.63702 9.5268 3.13044 10.5546 2.80181 11.6821C2.47318 12.8095 2.44846 14.5332 2.8016 15.6532C3.15475 16.7733 3.8699 17.2394 4.78578 17.9744C5.70167 18.7095 6.81497 19.1565 7.98488 19.2588C9.1548 19.3612 10.3288 19.1143 11.3584 18.5495C12.388 17.9846 13.227 17.1271 13.7693 16.0854C14.3116 15.0437 14.5328 13.8646 14.4049 12.6972C14.2771 11.5298 13.051 10.0269 12.6369 10.6533C12.2228 11.2797 10.1755 13.49 8.5024 13.3436C6.82932 13.1973 5.73428 8.0632 4.68565 8.795Z" fill="#52525B"/>
</svg>
