<svg width="400" height="400" viewBox="0 0 400 400" fill="none" xmlns="http://www.w3.org/2000/svg">
<g clip-path="url(#clip0_104_1221)">
<g clip-path="url(#clip1_104_1221)">
<path d="M143.77 177.818L126.244 160.293C125.453 159.502 124.381 159.062 123.256 159.062H120.391C125.242 152.857 128.125 145.053 128.125 136.562C128.125 116.365 111.76 100 91.5625 100C71.3652 100 55 116.365 55 136.562C55 156.76 71.3652 173.125 91.5625 173.125C100.053 173.125 107.857 170.242 114.062 165.391V168.256C114.062 169.381 114.502 170.453 115.293 171.244L132.818 188.77C134.471 190.422 137.143 190.422 138.777 188.77L143.752 183.795C145.404 182.143 145.404 179.471 143.77 177.818ZM91.5625 159.062C79.1348 159.062 69.0625 149.008 69.0625 136.562C69.0625 124.135 79.1172 114.062 91.5625 114.062C103.99 114.062 114.062 124.117 114.062 136.562C114.062 148.99 104.008 159.062 91.5625 159.062Z" fill="black"/>
</g>
<g opacity="0.7" clip-path="url(#clip2_104_1221)">
<rect y="200" width="200" height="200" transform="rotate(-90 0 200)" fill="#E1EBFB"/>
<rect x="200" y="200" width="200" height="200" transform="rotate(-90 200 200)" fill="#F3F0EA"/>
<rect x="200" y="200" width="100" height="200" transform="rotate(-90 200 200)" fill="#FFC6C6"/>
<path d="M400 100C344.772 100 300 55.2285 300 0H400V100Z" fill="#C28686"/>
<rect width="200" height="200" transform="matrix(0 1 1 0 0 200)" fill="#F3F0EA"/>
<path d="M100 300C155.228 300 200 344.772 200 400H0C0 344.772 44.7715 300 100 300Z" fill="#C28686"/>
<path d="M100 300C155.228 300 200 255.228 200 200L0 200C0 255.228 44.7715 300 100 300Z" fill="#E1EBFB"/>
<rect x="200" y="400" width="200" height="200" transform="rotate(-90 200 400)" fill="#F3F0EA"/>
<path d="M300 300C355.228 300 400 255.228 400 200H200C200 255.228 244.772 300 300 300Z" fill="#C28686"/>
</g>
</g>
<defs>
<clipPath id="clip0_104_1221">
<path d="M0 150C0 67.1573 67.1573 0 150 0H350C377.614 0 400 22.3858 400 50V370C400 386.569 386.569 400 370 400H50C22.3858 400 0 377.614 0 350V150Z" fill="white"/>
</clipPath>
<clipPath id="clip1_104_1221">
<rect width="90" height="90" fill="white" transform="translate(55 100)"/>
</clipPath>
<clipPath id="clip2_104_1221">
<rect width="400" height="400" fill="white"/>
</clipPath>
</defs>
</svg>
