<svg width="53" height="53" viewBox="0 0 53 53" fill="none" xmlns="http://www.w3.org/2000/svg">
<path d="M50.9869 20.1436C48.8858 21.7578 53.2848 28.9507 48.8858 33.9507C40.2848 39.0685 36.409 37.9519 32.5247 40.3756C28.6403 42.7992 29.9205 47.7578 25.4352 47.7578C20.95 47.7578 16.5437 46.4819 12.6594 44.0582C8.77505 41.6346 5.54946 38.1486 3.30684 33.9507C1.06421 29.7528 3.48738 28.1051 3.48738 23.2578C3.48739 18.4105 1.06414 13.4557 3.30677 9.25778C5.5494 5.0599 7.46653 -3.74728 8.88606 1.75785C9.69533 4.8963 13.8182 7.11747 17.1413 12.842C30.4748 11.7782 28.6897 17.7911 28.9364 17.6289C28.9364 17.6289 53.0879 18.5294 50.9869 20.1436Z" fill="#FDA4AF"/>
<path d="M6.55127 18.7272C3.26223 21.0091 1.70548 24.2601 0.717554 27.8372C-0.270375 31.4143 -0.266584 36.9057 0.906191 40.4916C2.07897 44.0775 4.36805 45.5968 7.30623 47.9828C10.2444 50.3689 13.7946 51.8463 17.5078 52.2282C21.2211 52.6101 24.9306 51.8794 28.1673 50.1285C31.404 48.3776 34.0226 45.6851 35.6918 42.3915C37.361 39.0979 38.006 35.3512 37.545 31.6251C37.0841 27.8989 33.1262 23.0514 31.8435 25.0278C30.5608 27.0041 24.1765 33.9498 18.8663 33.4036C13.5561 32.8574 9.8403 16.4452 6.55127 18.7272Z" fill="#FECDD3"/>
<path d="M19.6358 42.2693C19.3858 42.9998 18.3858 43.5193 18.3858 43.5193C18.3858 43.5193 17.1358 42.9597 17.1358 42.2693C17.1358 41.579 17.6955 41.0193 18.3858 41.0193C19.0762 41.0193 19.8858 41.5388 19.6358 42.2693Z" fill="#FDA4AF"/>
<path d="M52.8858 22.4999C52.8858 23.8806 51.7665 24.9999 50.3858 24.9999C49.0051 24.9999 47.8858 23.4999 47.8858 22.4999C47.8858 21.4999 49.0051 19.4999 50.3858 19.4999C51.7665 19.4999 52.8858 21.1192 52.8858 22.4999Z" fill="#FECDD3"/>
</svg>
